<mxfile host="app.diagrams.net" modified="2024-03-21T16:48:12.158Z" agent="Mozilla/5.0 (X11; Linux x86_64; rv:123.0) Gecko/20100101 Firefox/123.0" version="24.0.7" etag="JLHCFcIrVOIDaZCCrdDp" type="github">
  <diagram name="Page-1" id="wkmVhNM6LRFGVP5-gL13">
    <mxGraphModel>
      <root>
        <mxCell id="0" />
        <mxCell id="1" parent="0" />
      </root>
    </mxGraphModel>
  </diagram>
</mxfile>
